# xmcd
#
# Track frame offsets: 
#        150
#        28505
#        59687
#        85968
#        101895
#        133962
#        139172
#
# Disc length: 2523 seconds
#
# Revision: 1
# Processed by: cddbd v1.5.2PL0 Copyright (c) Steve Scherf et al.
# Submitted via: ExactAudioCopyFreeDBPlugin 1.0
#
DISCID=6809d907
DTITLE=Craig Taborn - Junk Magic
DYEAR=2004
DGENRE=Jazz
TTITLE0=Junk Magic
TTITLE1=Mystero
TTITLE2=Shining Through
TTITLE3=Prismatica
TTITLE4=Bodies At Rest And In Motion
TTITLE5=Stalagmite
TTITLE6=The Golden Age
EXTD=
EXTT0=
EXTT1=
EXTT2=
EXTT3=
EXTT4=
EXTT5=
EXTT6=
PLAYORDER=
